<?xml version="1.0" encoding="utf-8"?>
<!-- Generator: Adobe Illustrator 25.4.1, SVG Export Plug-In . SVG Version: 6.00 Build 0)  -->
<svg version="1.1" id="Layer_1" xmlns="http://www.w3.org/2000/svg" xmlns:xlink="http://www.w3.org/1999/xlink" x="0px" y="0px"
	 viewBox="0 0 28 28" style="enable-background:new 0 0 28 28;" xml:space="preserve">
<style type="text/css">
	.st0{fill:#330000;stroke:#000000;stroke-width:0.5;stroke-miterlimit:10;}
	.st1{fill:#FF9A00;}
	.st2{clip-path:url(#SVGID_00000013897242884369358580000001377763797281518263_);}
	.st3{fill:#333333;stroke:#808080;stroke-width:0.5;stroke-miterlimit:10;}
</style>
<g id="Illustrator" transform="translate(2303 308)">
	<path id="_16" class="st0" d="M-2298.4-307.7h18.8c2.4,0,4.3,1.9,4.3,4.3v18.8c0,2.4-1.9,4.3-4.3,4.3h-18.8c-2.4,0-4.3-1.9-4.3-4.3
		v-18.8C-2302.7-305.8-2300.8-307.7-2298.4-307.7z"/>
	<path id="_30" class="st1" d="M-2289.3-291h-4.3l-0.9,2.9c0,0.1-0.1,0.2-0.2,0.2h-2.2c-0.1,0-0.2-0.1-0.1-0.2l3.7-10.7
		c0-0.1,0.1-0.2,0.1-0.4c0.1-0.2,0.1-0.4,0.1-0.6c0-0.1,0-0.1,0.1-0.1c0,0,0,0,0,0h2.9c0.1,0,0.1,0,0.1,0.1l4.2,11.7
		c0,0.1,0,0.2-0.1,0.2h-2.4c-0.1,0-0.2,0-0.2-0.1L-2289.3-291z M-2293-292.9h3.1c-0.1-0.2-0.3-0.8-0.4-1.1c-0.1-0.3-0.2-0.6-0.3-0.9
		c-0.1-0.3-0.2-0.7-0.3-1.1c-0.1-0.3-0.2-0.7-0.3-1c-0.1-0.3-0.2-0.6-0.3-0.9h0c-0.1,0.5-0.2,1-0.4,1.5c-0.2,0.6-0.3,1.1-0.5,1.7
		C-2292.6-294.2-2292.8-293.4-2293-292.9L-2293-292.9z"/>
	<path id="_31" class="st1" d="M-2283.2-298c-0.4,0-0.8-0.1-1-0.4c-0.3-0.3-0.4-0.7-0.4-1.1c0-0.4,0.1-0.8,0.4-1
		c0.3-0.3,0.6-0.4,1-0.4c0.4,0,0.8,0.1,1,0.4c0.3,0.3,0.4,0.6,0.4,1c0,0.4-0.1,0.8-0.4,1.1C-2282.4-298.1-2282.8-298-2283.2-298z
		 M-2284.4-288.1v-8.5c0-0.1,0-0.2,0.1-0.2h2.1c0.1,0,0.1,0.1,0.1,0.2v8.5c0,0.1,0,0.2-0.1,0.2h-2.1
		C-2284.3-287.9-2284.4-288-2284.4-288.1z"/>
</g>
<g>
	<g>
		<defs>
			<rect id="SVGID_1_" x="-39.9" y="-1.9" width="28" height="28"/>
		</defs>
		<clipPath id="SVGID_00000170999204665572814820000005761986430789030019_">
			<use xlink:href="#SVGID_1_"  style="overflow:visible;"/>
		</clipPath>
		<g style="clip-path:url(#SVGID_00000170999204665572814820000005761986430789030019_);">
			<path class="st3" d="M-25.9-1.3c-7.7,0-14,6.1-14,13.7c0,6.1,4,11.2,9.6,13.1c0.7,0.1,1-0.3,1-0.7c0-0.3,0-1.2,0-2.3
				c-3.9,0.8-4.7-1.8-4.7-1.8c-0.6-1.6-1.6-2-1.6-2c-1.3-0.9,0.1-0.8,0.1-0.8c1.4,0.1,2.1,1.4,2.1,1.4c1.2,2.1,3.3,1.5,4.1,1.1
				c0.1-0.9,0.5-1.5,0.9-1.8c-3.1-0.3-6.4-1.5-6.4-6.8c0-1.5,0.5-2.7,1.4-3.7c-0.1-0.4-0.6-1.8,0.1-3.7c0,0,1.2-0.4,3.8,1.4
				c1.1-0.3,2.3-0.5,3.5-0.5c1.2,0,2.4,0.2,3.5,0.5c2.7-1.8,3.8-1.4,3.8-1.4c0.8,1.9,0.3,3.3,0.1,3.6c0.9,1,1.4,2.2,1.4,3.7
				c0,5.3-3.3,6.4-6.4,6.8c0.5,0.4,0.9,1.3,0.9,2.5c0,1.8,0,3.3,0,3.8c0,0.4,0.2,0.8,1,0.7c5.6-1.8,9.6-7,9.6-13
				C-11.9,4.8-18.2-1.3-25.9-1.3z"/>
		</g>
	</g>
</g>
</svg>
