<?xml version="1.0" encoding="utf-8"?>
<!-- Generator: Adobe Illustrator 25.4.1, SVG Export Plug-In . SVG Version: 6.00 Build 0)  -->
<svg version="1.1" id="Layer_1" xmlns="http://www.w3.org/2000/svg" xmlns:xlink="http://www.w3.org/1999/xlink" x="0px" y="0px"
	 viewBox="0 0 28 28" style="enable-background:new 0 0 28 28;" xml:space="preserve">
<style type="text/css">
	.st0{fill:#001E36;stroke:#111111;stroke-width:0.5;stroke-miterlimit:10;}
	.st1{fill:#31A8FF;}
	.st2{clip-path:url(#SVGID_00000183952688685417735340000017129348652069608096_);}
	.st3{fill:#333333;stroke:#808080;stroke-width:0.5;stroke-miterlimit:10;}
</style>
<g id="Layer_2_1_">
	<g id="Surfaces">
		<g id="Photo_Surface">
			<g id="Outline_no_shadow">
				<path class="st0" d="M5,0H23c2.7,0,5,2.3,5,5.1v18c0,2.8-2.2,5.1-5,5.1H5c-2.7,0-5-2.3-5-5.1v-18C0,2.3,2.2,0,5,0z"/>
			</g>
		</g>
	</g>
	<g id="Outlined_Mnemonics_Logos">
		<g id="Ps">
			<path class="st1" d="M6.3,19.8V7.4c0-0.1,0-0.1,0.1-0.1c0.2,0,0.4,0,0.7,0c0.3,0,0.6,0,0.9,0c0.3,0,0.7,0,1,0c0.4,0,0.7,0,1.1,0
				c1,0,1.8,0.1,2.4,0.4c0.6,0.2,1.1,0.5,1.6,1c0.4,0.4,0.7,0.9,0.9,1.4c0.2,0.5,0.3,1,0.3,1.6c0,1-0.2,1.9-0.7,2.6
				c-0.5,0.7-1.1,1.2-1.9,1.5c-0.8,0.3-1.7,0.4-2.6,0.4c-0.3,0-0.5,0-0.6,0c-0.1,0-0.3,0-0.5,0v3.9c0,0.1,0,0.2-0.1,0.2c0,0,0,0,0,0
				H6.4C6.3,20,6.3,19.9,6.3,19.8z M8.8,9.6v4.1c0.2,0,0.3,0,0.5,0h0.6c0.5,0,0.9-0.1,1.3-0.2c0.4-0.1,0.7-0.3,1-0.6
				c0.2-0.3,0.4-0.7,0.4-1.2c0-0.4-0.1-0.7-0.3-1.1c-0.2-0.3-0.5-0.6-0.8-0.7c-0.4-0.2-0.9-0.3-1.4-0.2c-0.3,0-0.6,0-0.8,0
				C9.1,9.5,8.9,9.6,8.8,9.6L8.8,9.6z"/>
			<path class="st1" d="M22.4,12.9c-0.4-0.2-0.7-0.3-1.1-0.4c-0.4-0.1-0.9-0.2-1.3-0.2c-0.2,0-0.5,0-0.7,0.1c-0.2,0-0.3,0.1-0.4,0.2
				c-0.1,0.1-0.1,0.2-0.1,0.3s0,0.2,0.1,0.3c0.1,0.1,0.2,0.2,0.4,0.3c0.3,0.1,0.5,0.3,0.8,0.4c0.6,0.2,1.2,0.5,1.8,0.9
				c0.4,0.3,0.7,0.6,0.9,1c0.2,0.4,0.3,0.8,0.3,1.2c0,0.6-0.2,1.1-0.5,1.6c-0.3,0.5-0.8,0.9-1.3,1.1c-0.6,0.3-1.3,0.4-2.1,0.4
				c-0.5,0-1.1,0-1.6-0.2c-0.4-0.1-0.8-0.2-1.2-0.4c-0.1,0-0.1-0.1-0.1-0.2v-2.1c0,0,0-0.1,0-0.1c0,0,0.1,0,0.1,0
				c0.5,0.3,0.9,0.5,1.4,0.6c0.4,0.1,0.9,0.2,1.4,0.2c0.4,0,0.8-0.1,1-0.2c0.2-0.1,0.3-0.3,0.3-0.5c0-0.2-0.1-0.3-0.3-0.5
				c-0.2-0.2-0.6-0.3-1.1-0.6c-0.6-0.2-1.1-0.5-1.7-0.9c-0.4-0.3-0.7-0.6-0.9-1c-0.2-0.4-0.3-0.8-0.3-1.2c0-0.5,0.1-1,0.4-1.5
				c0.3-0.5,0.7-0.9,1.2-1.1c0.5-0.3,1.2-0.4,2.1-0.4c0.5,0,1,0,1.4,0.1c0.4,0,0.7,0.1,1,0.3c0,0,0.1,0.1,0.1,0.1c0,0,0,0.1,0,0.1v2
				c0,0,0,0.1-0.1,0.1C22.5,12.9,22.4,12.9,22.4,12.9z"/>
		</g>
	</g>
</g>
<g>
	<g>
		<defs>
			<rect id="SVGID_1_" x="97" y="34.3" width="28" height="28"/>
		</defs>
		<clipPath id="SVGID_00000100341698790233994430000002119672638607742390_">
			<use xlink:href="#SVGID_1_"  style="overflow:visible;"/>
		</clipPath>
		<g style="clip-path:url(#SVGID_00000100341698790233994430000002119672638607742390_);">
			<path class="st3" d="M111,34.9c-7.7,0-14,6.1-14,13.7c0,6.1,4,11.2,9.6,13.1c0.7,0.1,1-0.3,1-0.7c0-0.3,0-1.2,0-2.3
				c-3.9,0.8-4.7-1.8-4.7-1.8c-0.6-1.6-1.6-2-1.6-2c-1.3-0.9,0.1-0.8,0.1-0.8c1.4,0.1,2.1,1.4,2.1,1.4c1.2,2.1,3.3,1.5,4.1,1.1
				c0.1-0.9,0.5-1.5,0.9-1.8c-3.1-0.3-6.4-1.5-6.4-6.8c0-1.5,0.5-2.7,1.4-3.7c-0.1-0.4-0.6-1.8,0.1-3.7c0,0,1.2-0.4,3.8,1.4
				c1.1-0.3,2.3-0.5,3.5-0.5c1.2,0,2.4,0.2,3.5,0.5c2.7-1.8,3.8-1.4,3.8-1.4c0.8,1.9,0.3,3.3,0.1,3.6c0.9,1,1.4,2.2,1.4,3.7
				c0,5.3-3.3,6.4-6.4,6.8c0.5,0.4,0.9,1.3,0.9,2.5c0,1.8,0,3.3,0,3.8c0,0.4,0.2,0.8,1,0.7c5.6-1.8,9.6-7,9.6-13
				C125,41,118.7,34.9,111,34.9z"/>
		</g>
	</g>
</g>
</svg>
