<?xml version="1.0" encoding="utf-8"?>
<!-- Generator: Adobe Illustrator 25.4.1, SVG Export Plug-In . SVG Version: 6.00 Build 0)  -->
<svg version="1.1" id="Layer_1" xmlns="http://www.w3.org/2000/svg" xmlns:xlink="http://www.w3.org/1999/xlink" x="0px" y="0px"
	 viewBox="0 0 28 28" style="enable-background:new 0 0 28 28;" xml:space="preserve">
<style type="text/css">
	.st0{fill-rule:evenodd;clip-rule:evenodd;fill:#2A53E1;stroke:#000000;stroke-width:0.25;stroke-miterlimit:10;}
	.st1{fill-rule:evenodd;clip-rule:evenodd;fill:#2E6AEE;}
	.st2{fill-rule:evenodd;clip-rule:evenodd;fill:#EBEBEB;stroke:#000000;stroke-width:0.25;stroke-miterlimit:10;}
	.st3{fill-rule:evenodd;clip-rule:evenodd;fill:#FFFFFF;stroke:#000000;stroke-width:0.25;stroke-miterlimit:10;}
</style>
<g>
	
		<image style="overflow:visible;opacity:0.5;" width="98" height="100" xlink:href="DA45F1EE.png"  transform="matrix(1 0 0 1 -28 -29)">
	</image>
	<g>
		<g>
			<path class="st0" d="M14,27.8L4.1,25L1.9,0.2h24.2L23.9,25L14,27.8z"/>
			<path class="st1" d="M22,23.4l1.9-21.2H14v23.4L22,23.4z"/>
			<path class="st2" d="M7,11.4l0.3,3H14v-3H7z M6.4,5.3l0.3,3H14v-3H6.4z M14,19.3L14,19.3l-3.4-0.9L10.4,16h-3l0.4,4.8l6.2,1.7
				l0,0L14,19.3z"/>
			<path class="st3" d="M21,11.4l0.5-6.2H14v3h4.3L18,11.4h-4v3h3.7l-0.4,3.9L14,19.4v3.2l6.2-1.7l0-0.5l0.7-8L21,11.4z"/>
		</g>
	</g>
</g>
</svg>
