<?xml version="1.0" encoding="utf-8"?>
<!-- Generator: Adobe Illustrator 25.4.1, SVG Export Plug-In . SVG Version: 6.00 Build 0)  -->
<svg version="1.1" id="Layer_1" xmlns="http://www.w3.org/2000/svg" xmlns:xlink="http://www.w3.org/1999/xlink" x="0px" y="0px"
	 viewBox="0 0 78 77" style="enable-background:new 0 0 78 77;" xml:space="preserve">
<style type="text/css">
	.st0{fill:#F8EFEC;}
	.st1{fill:#0C0000;}
</style>
<path class="st0" d="M16,0.3h46c8.5,0,15.4,6.9,15.4,15.4v46C77.4,70.1,70.5,77,62,77H16C7.5,77,0.6,70.1,0.6,61.6v-46
	C0.6,7.1,7.5,0.3,16,0.3z"/>
<path class="st1" d="M22.6,28.5L8.7,37.2V40l13.9,8.7l1.7-2.8l-11.5-7.3l11.5-7.3L22.6,28.5z"/>
<path class="st1" d="M55.4,28.5l-1.7,2.8l11.5,7.3l-11.5,7.3l1.7,2.8L69.3,40v-2.8L55.4,28.5z"/>
<path class="st1" d="M39,42.1c1.9,0,3.5-1.6,3.5-3.5s-1.6-3.5-3.5-3.5s-3.5,1.6-3.5,3.5S37.1,42.1,39,42.1z"/>
<path class="st1" d="M49.4,42.1c1.9,0,3.5-1.6,3.5-3.5s-1.6-3.5-3.5-3.5s-3.5,1.6-3.5,3.5C45.9,40.5,47.5,42.1,49.4,42.1z"/>
<path class="st1" d="M28.6,42.1c1.9,0,3.5-1.6,3.5-3.5s-1.6-3.5-3.5-3.5s-3.5,1.6-3.5,3.5S26.7,42.1,28.6,42.1z"/>
</svg>
