<?xml version="1.0" encoding="utf-8"?>
<!-- Generator: Adobe Illustrator 25.4.1, SVG Export Plug-In . SVG Version: 6.00 Build 0)  -->
<svg version="1.1" id="Layer_1" xmlns="http://www.w3.org/2000/svg" xmlns:xlink="http://www.w3.org/1999/xlink" x="0px" y="0px"
	 viewBox="0 0 32 28" style="enable-background:new 0 0 32 28;" xml:space="preserve">
<style type="text/css">
	.st0{fill:#F03C2E;stroke:#161616;stroke-width:0.5;stroke-miterlimit:10;}
</style>
<g>
	<path class="st0" d="M29.5,12.8L17.2,0.5c-0.7-0.7-1.8-0.7-2.5,0l-2.5,2.5l3.2,3.2C16.1,6,17,6.2,17.6,6.8c0.6,0.6,0.8,1.4,0.5,2.2
		l3.1,3.1c0.7-0.3,1.6-0.1,2.2,0.5c0.8,0.8,0.8,2.2,0,3c-0.3,0.3-0.6,0.5-1,0.6c-0.7,0.2-1.5,0-2.1-0.6c-0.6-0.6-0.8-1.6-0.5-2.3
		L17,10.4v7.6c0.2,0.1,0.4,0.2,0.6,0.4c0.8,0.8,0.8,2.2,0,3c-0.8,0.8-2.2,0.8-3,0c0,0,0,0,0,0c-0.8-0.8-0.8-2.2,0-3
		c0.2-0.2,0.4-0.4,0.7-0.5v-7.7c-0.2-0.1-0.5-0.3-0.7-0.5c-0.6-0.6-0.8-1.5-0.5-2.3l-3.2-3.2l-8.4,8.4c-0.7,0.7-0.7,1.8,0,2.6
		l12.2,12.2c0.7,0.7,1.8,0.7,2.5,0l12.2-12.2C30.2,14.6,30.2,13.5,29.5,12.8"/>
</g>
</svg>
