<svg width="24" height="24" viewBox="0 0 24 24" fill="none" xmlns="http://www.w3.org/2000/svg">
<g clip-path="url(#clip0_66_1649)">
<path d="M0.184072 10.462C-0.594929 15.368 1.58507 21.285 8.30707 23.468C8.42707 23.49 8.53807 23.5 8.64207 23.5C9.42407 23.5 9.96207 22.918 9.96207 22.2C9.86507 21.677 10.3451 19.558 9.04207 19.843C6.52307 20.379 6.22107 18.972 5.83707 18.236C6.92307 19.63 8.55507 19.595 9.78607 19.055C10.4691 18.755 10.1121 17.991 10.4361 17.712C10.5468 17.6167 10.6273 17.4911 10.6677 17.3507C10.7081 17.2103 10.7065 17.0611 10.6633 16.9216C10.6201 16.782 10.537 16.6581 10.4244 16.5651C10.3117 16.4721 10.1743 16.414 10.0291 16.398C7.71507 16.143 5.57207 15.397 5.57207 11.696C5.57207 9.52797 7.07707 9.33397 6.66207 8.42697C6.64707 8.39397 6.32907 7.67297 6.61707 6.57797C8.03607 6.83997 8.68907 7.85797 9.37007 7.67497C11.0571 7.21497 12.9141 7.21497 14.6001 7.67497C15.3041 7.86397 15.8071 6.87397 17.3381 6.57197C17.7791 8.22597 16.8651 8.62997 17.4411 9.24897C18.0731 9.92897 18.3941 10.752 18.3941 11.696C18.3941 17.26 13.6771 15.653 13.2931 16.916C13.2501 17.0565 13.2495 17.2065 13.2913 17.3474C13.3331 17.4882 13.4155 17.6136 13.5281 17.708C14.1381 18.221 14.0581 19.538 13.9931 20.597C13.9261 21.695 13.8681 22.642 14.4751 23.176C14.6891 23.366 15.0701 23.569 15.7591 23.429C22.3931 21.298 24.5891 15.407 23.8221 10.512C21.7261 -2.85603 2.29607 -2.84003 0.184072 10.462ZM8.45407 21.44L8.45807 21.945C7.95288 21.7709 7.46008 21.5628 6.98307 21.322C7.40807 21.431 7.89607 21.478 8.45407 21.44ZM8.82407 17.74L8.80907 17.82C7.95607 18.072 7.30007 17.821 6.85207 17.068L6.85107 17.066C7.53107 17.43 8.23207 17.626 8.82407 17.74ZM12.0001 1.99997C23.8331 1.99997 26.5021 18.267 15.4691 21.941C15.4311 21.644 15.4661 21.084 15.4901 20.689C15.5481 19.738 15.6161 18.63 15.2771 17.704C20.3651 16.645 20.7901 11.058 18.8311 8.56897C19.0741 7.61697 18.9761 5.37997 18.1021 5.10597C17.8961 5.04097 16.7971 4.80197 14.6651 6.14297C12.9023 5.72648 11.0668 5.72648 9.30407 6.14297C8.24007 5.47597 5.84207 4.39097 5.38207 5.54297C4.84807 6.88497 4.97507 7.96997 5.13407 8.57297C3.39507 10.777 3.91607 14.467 5.66807 16.199C4.67507 15.724 3.30707 15.562 3.01207 16.513C2.68907 17.55 3.92407 17.424 4.69107 19.317C4.76407 19.553 4.89907 19.83 5.10607 20.105C-1.70493 14.54 1.58107 1.99997 12.0001 1.99997Z" style="fill: var(--on-surface-variant)"/>
</g>
<defs>
<clipPath id="clip0_66_1649">
<rect width="24" height="24" fill="white"/>
</clipPath>
</defs>
</svg>
