<?xml version="1.0" encoding="utf-8"?>
<!-- Generator: Adobe Illustrator 25.4.1, SVG Export Plug-In . SVG Version: 6.00 Build 0)  -->
<svg version="1.1" id="Layer_1" xmlns="http://www.w3.org/2000/svg" xmlns:xlink="http://www.w3.org/1999/xlink" x="0px" y="0px"
	 viewBox="0 0 28 28" style="enable-background:new 0 0 28 28;" xml:space="preserve">
<style type="text/css">
	.st0{clip-path:url(#SVGID_00000059271817457988921020000003788255097376937648_);}
	.st1{fill:#333333;stroke:#E2E0E0;stroke-width:0.5;stroke-miterlimit:10;}
</style>
<g>
	<g>
		<defs>
			<rect id="SVGID_1_" width="28" height="28"/>
		</defs>
		<clipPath id="SVGID_00000029041243130845394800000015609219050534056356_">
			<use xlink:href="#SVGID_1_"  style="overflow:visible;"/>
		</clipPath>
		<g style="clip-path:url(#SVGID_00000029041243130845394800000015609219050534056356_);">
			<path class="st1" d="M14,0.6C6.3,0.6,0,6.7,0,14.3c0,6.1,4,11.2,9.6,13.1c0.7,0.1,1-0.3,1-0.7c0-0.3,0-1.2,0-2.3
				c-3.9,0.8-4.7-1.8-4.7-1.8c-0.6-1.6-1.6-2-1.6-2c-1.3-0.9,0.1-0.8,0.1-0.8c1.4,0.1,2.1,1.4,2.1,1.4c1.2,2.1,3.3,1.5,4.1,1.1
				c0.1-0.9,0.5-1.5,0.9-1.8c-3.1-0.3-6.4-1.5-6.4-6.8c0-1.5,0.5-2.7,1.4-3.7C6.4,9.6,5.9,8.2,6.6,6.3c0,0,1.2-0.4,3.8,1.4
				c1.1-0.3,2.3-0.5,3.5-0.5s2.4,0.2,3.5,0.5c2.7-1.8,3.8-1.4,3.8-1.4c0.8,1.9,0.3,3.3,0.1,3.6c0.9,1,1.4,2.2,1.4,3.7
				c0,5.3-3.3,6.4-6.4,6.8c0.5,0.4,0.9,1.3,0.9,2.5c0,1.8,0,3.3,0,3.8c0,0.4,0.2,0.8,1,0.7c5.6-1.8,9.6-7,9.6-13
				C28,6.7,21.7,0.6,14,0.6z"/>
		</g>
	</g>
</g>
</svg>
