<?xml version="1.0" encoding="utf-8"?>
<!-- Generator: Adobe Illustrator 25.4.1, SVG Export Plug-In . SVG Version: 6.00 Build 0)  -->
<svg version="1.1" id="Layer_1" xmlns="http://www.w3.org/2000/svg" xmlns:xlink="http://www.w3.org/1999/xlink" x="0px" y="0px"
	 viewBox="0 0 28 28" style="enable-background:new 0 0 28 28;" xml:space="preserve">
<style type="text/css">
	.st0{fill-rule:evenodd;clip-rule:evenodd;fill:#E04E30;stroke:#000000;stroke-width:0.25;stroke-miterlimit:10;}
	.st1{fill-rule:evenodd;clip-rule:evenodd;fill:#EC6635;}
	.st2{fill-rule:evenodd;clip-rule:evenodd;fill:#E7E7F0;stroke:#000000;stroke-width:0.25;stroke-miterlimit:10;}
	.st3{fill-rule:evenodd;clip-rule:evenodd;fill:#FFFFFF;stroke:#000000;stroke-width:0.25;stroke-miterlimit:10;}
</style>
<g>
	
		<image style="overflow:visible;opacity:0.5;" width="98" height="102" xlink:href="6E5375E6.png"  transform="matrix(1 0 0 1 -28 -30)">
	</image>
	<g>
		<g>
			<path class="st0" d="M26.2,0L24,25.2L14,28l-10-2.8L1.8,0L26.2,0z"/>
			<path class="st1" d="M14,25.9l8.1-2.3L24,2.1H14V25.9z"/>
			<path class="st2" d="M9.7,8.2H14V5.2H6.4L6.5,6l0.7,8.5H14v-3.1h-4L9.7,8.2z M10.4,16H7.3l0.4,4.9l6.3,1.8l0,0v-3.2l0,0l-3.4-0.9
				L10.4,16z"/>
			<path class="st3" d="M14,14.5h3.8l-0.4,4L14,19.4v3.2l6.3-1.8l0-0.5l0.7-8.1l0.1-0.8H14V14.5z M14,8.2L14,8.2l7.4,0l0.1-0.7
				L21.6,6l0.1-0.8H14V8.2z"/>
		</g>
	</g>
</g>
</svg>
