<?xml version="1.0" encoding="utf-8"?>
<!-- Generator: Adobe Illustrator 25.4.1, SVG Export Plug-In . SVG Version: 6.00 Build 0)  -->
<svg version="1.1" id="Layer_1" xmlns="http://www.w3.org/2000/svg" xmlns:xlink="http://www.w3.org/1999/xlink" x="0px" y="0px"
	 viewBox="0 0 24 24" style="enable-background:new 0 0 24 24;" xml:space="preserve">
<style type="text/css">
	.st0{clip-path:url(#SVGID_00000071557548872531361200000000561809365416202889_);}
	.st1{fill:#FFFFFF;filter:url(#Adobe_OpacityMaskFilter);}
	.st2{mask:url(#mask0_66_1657_00000163070350774848044360000013808700262516954032_);}
	.st3{fill:none;}
</style>
<g>
	<defs>
		<rect id="SVGID_1_" width="24" height="24"/>
	</defs>
	<clipPath id="SVGID_00000130607106937808993020000011455121040530769585_">
		<use xlink:href="#SVGID_1_"  style="overflow:visible;"/>
	</clipPath>
	<g style="clip-path:url(#SVGID_00000130607106937808993020000011455121040530769585_);">
		<defs>
			<filter id="Adobe_OpacityMaskFilter" filterUnits="userSpaceOnUse" x="0.9" y="0.9" width="22.1" height="22.1">
				<feColorMatrix  type="matrix" values="1 0 0 0 0  0 1 0 0 0  0 0 1 0 0  0 0 0 1 0"/>
			</filter>
		</defs>
		
			<mask maskUnits="userSpaceOnUse" x="0.9" y="0.9" width="22.1" height="22.1" id="mask0_66_1657_00000163070350774848044360000013808700262516954032_">
			<path class="st1" d="M0,0h24v24H0V0z"/>
		</mask>
		<g class="st2">
			<path class="st3" d="M23.1,12c0,1,0,2,0,3c0,1.2,0,2.4-0.3,3.6c-0.3,1.2-0.9,2.3-1.9,3.1c-1,0.8-2.2,1.3-3.6,1.3
				c-1.8,0.1-3.5,0.1-5.3,0.1c-1.8,0-3.5,0-5.3-0.1c-1.3-0.1-2.5-0.5-3.6-1.3c-1-0.8-1.6-1.8-1.9-3.1C1,17.3,1,16.1,1,15
				c0-1,0-2,0-3c0-1,0-2,0-3c0-1.2,0-2.4,0.3-3.6c0.3-1.2,0.9-2.3,1.9-3.1c1-0.8,2.2-1.3,3.6-1.3C8.5,1,10.2,0.9,12,0.9
				c1.8,0,3.5,0,5.3,0.1c1.3,0.1,2.5,0.5,3.6,1.3c1,0.8,1.6,1.8,1.9,3.1C23,6.7,23,7.9,23,9C23,10,23.1,11,23.1,12z"/>
			<path class="st3" d="M16.9,12c0,2.7-2.2,4.9-4.9,4.9C9.2,16.9,7,14.7,7,12C7,9.3,9.2,7.1,12,7.1C14.7,7.1,16.9,9.3,16.9,12z"/>
			<path class="st3" d="M19.9,5.7c0,0.8-0.6,1.4-1.4,1.4c-0.8,0-1.4-0.6-1.4-1.4s0.6-1.4,1.4-1.4C19.2,4.3,19.9,4.9,19.9,5.7z"/>
		</g>
	</g>
</g>
</svg>
