<?xml version="1.0" encoding="utf-8"?>
<!-- Generator: Adobe Illustrator 25.4.1, SVG Export Plug-In . SVG Version: 6.00 Build 0)  -->
<svg version="1.1" id="Layer_1" xmlns="http://www.w3.org/2000/svg" xmlns:xlink="http://www.w3.org/1999/xlink" x="0px" y="0px"
	 viewBox="0 0 28 28" style="enable-background:new 0 0 28 28;" xml:space="preserve">
<style type="text/css">
	.st0{fill:#F7DF1E;stroke:#000000;stroke-width:0.5;stroke-miterlimit:10;}
	.st1{fill:#0A0A0A;stroke:#FFFFFF;stroke-width:0.5;stroke-miterlimit:10;}
</style>
<g>
	
		<image style="overflow:visible;opacity:0.5;enable-background:new    ;" width="102" height="102" xlink:href="5F410C35.png"  transform="matrix(1 0 0 1 -30 -30)">
	</image>
	<g>
		<g>
			<path class="st0" d="M0,0h28v28H0V0z"/>
			<path class="st1" d="M7.4,23.4l2.1-1.3c0.4,0.7,0.8,1.4,1.7,1.4s1.4-0.3,1.4-1.7v-8.9h2.6v9c0,2.7-1.6,4-3.9,4
				C9.2,25.8,8,24.7,7.4,23.4"/>
			<path class="st1" d="M16.7,23.1l2.1-1.2c0.6,0.9,1.3,1.6,2.6,1.6c1.1,0,1.8-0.5,1.8-1.3c0-0.9-0.7-1.2-1.9-1.7l-0.7-0.3
				c-1.9-0.8-3.2-1.8-3.2-4c0-2,1.5-3.5,3.8-3.5c1.7,0,2.9,0.6,3.7,2.1l-2,1.3C22.5,15.3,22,15,21.3,15c-0.8,0-1.3,0.5-1.3,1.1
				c0,0.8,0.5,1.1,1.6,1.6l0.7,0.3c2.2,1,3.5,1.9,3.5,4.1c0,2.4-1.9,3.7-4.4,3.7C19,25.8,17.4,24.6,16.7,23.1"/>
		</g>
	</g>
</g>
</svg>
