<?xml version="1.0" encoding="utf-8"?>
<!-- Generator: Adobe Illustrator 25.4.1, SVG Export Plug-In . SVG Version: 6.00 Build 0)  -->
<svg version="1.1" id="Layer_1" xmlns="http://www.w3.org/2000/svg" xmlns:xlink="http://www.w3.org/1999/xlink" x="0px" y="0px"
	 viewBox="0 0 32 28" style="enable-background:new 0 0 32 28;" xml:space="preserve">
<style type="text/css">
	.st0{stroke:#808080;stroke-width:0.5;stroke-miterlimit:10;}
	.st1{fill:#61DAFB;}
</style>
<image style="overflow:visible;opacity:0.5;enable-background:new    ;" width="99" height="100" xlink:href="3DD68136.png"  transform="matrix(1 0 0 1 -26 -29)">
</image>
<g>
	<g>
		<path class="st0" d="M21.4,0.4h-9.2c-4.4,0-8,3.6-8,8v11.3c0,4.4,3.6,8,8,8h9.2c4.4,0,8-3.6,8-8V8.4C29.4,4,25.8,0.4,21.4,0.4z"/>
	</g>
</g>
<g>
	<path class="st1" d="M27.4,13.6c0-1.4-1.8-2.7-4.5-3.6c0.6-2.8,0.3-5-0.9-5.7c-0.3-0.2-0.6-0.2-1-0.2v1c0.2,0,0.4,0,0.5,0.1
		c0.6,0.3,0.8,1.6,0.6,3.3c0,0.4-0.1,0.8-0.2,1.3c-0.9-0.2-1.8-0.4-2.8-0.5c-0.6-0.8-1.2-1.5-1.8-2.2c1.4-1.3,2.7-2,3.6-2v-1
		c-1.2,0-2.8,0.9-4.3,2.3c-1.6-1.5-3.1-2.3-4.3-2.3v1c0.9,0,2.2,0.7,3.6,2c-0.6,0.6-1.2,1.4-1.8,2.2c-1,0.1-1.9,0.3-2.8,0.5
		c-0.1-0.4-0.2-0.9-0.2-1.3c-0.2-1.7,0-2.9,0.6-3.3c0.1-0.1,0.3-0.1,0.5-0.1v-1c-0.4,0-0.7,0.1-1,0.2c-1,0.7-1.3,2.9-0.6,5.7
		c-2.7,0.8-4.5,2.2-4.5,3.6s1.8,2.7,4.5,3.6c-0.6,2.8-0.3,5,0.9,5.7c0.3,0.2,0.6,0.2,1,0.2c1.2,0,2.8-0.9,4.3-2.3
		c1.6,1.5,3.1,2.3,4.3,2.3c0.4,0,0.7-0.1,1-0.2c1.2-0.7,1.5-2.9,0.9-5.6C25.6,16.3,27.4,15,27.4,13.6L27.4,13.6z M21.7,10.7
		c-0.2,0.6-0.4,1.1-0.6,1.7c-0.2-0.3-0.4-0.7-0.6-1s-0.4-0.7-0.6-1C20.6,10.4,21.2,10.5,21.7,10.7L21.7,10.7z M19.8,15.3
		c-0.3,0.6-0.7,1.1-1,1.7c-0.6,0.1-1.3,0.1-2,0.1s-1.3,0-2-0.1c-0.4-0.5-0.7-1.1-1-1.6c-0.3-0.6-0.6-1.1-0.9-1.7
		c0.3-0.6,0.6-1.2,0.9-1.7c0.3-0.6,0.7-1.1,1-1.7c0.6-0.1,1.3-0.1,2-0.1s1.3,0,2,0.1c0.4,0.5,0.7,1.1,1,1.6c0.3,0.6,0.6,1.1,0.9,1.7
		C20.4,14.1,20.1,14.7,19.8,15.3L19.8,15.3z M21.2,14.7c0.2,0.6,0.4,1.2,0.6,1.7c-0.6,0.1-1.2,0.3-1.8,0.3c0.2-0.3,0.4-0.7,0.6-1
		C20.8,15.4,21,15.1,21.2,14.7L21.2,14.7z M16.8,19.3c-0.4-0.4-0.8-0.9-1.2-1.4c0.4,0,0.8,0,1.2,0s0.8,0,1.2,0
		C17.6,18.5,17.2,18.9,16.8,19.3z M13.5,16.8c-0.6-0.1-1.2-0.2-1.8-0.3c0.2-0.6,0.4-1.1,0.6-1.7c0.2,0.3,0.4,0.7,0.6,1
		C13.1,16.1,13.3,16.5,13.5,16.8z M16.7,7.8c0.4,0.4,0.8,0.9,1.2,1.4c-0.4,0-0.8,0-1.2,0c-0.4,0-0.8,0-1.2,0
		C15.9,8.6,16.3,8.2,16.7,7.8z M13.5,10.3c-0.2,0.3-0.4,0.7-0.6,1c-0.2,0.3-0.4,0.7-0.6,1c-0.2-0.6-0.4-1.2-0.6-1.7
		C12.3,10.5,12.9,10.4,13.5,10.3L13.5,10.3z M9.6,15.8c-1.5-0.7-2.5-1.5-2.5-2.2s1-1.5,2.5-2.2c0.4-0.2,0.8-0.3,1.2-0.4
		c0.2,0.9,0.6,1.7,1,2.6c-0.4,0.9-0.7,1.8-1,2.6C10.4,16.1,10,15.9,9.6,15.8L9.6,15.8z M11.9,22c-0.6-0.3-0.8-1.6-0.6-3.3
		c0-0.4,0.1-0.8,0.2-1.3c0.9,0.2,1.8,0.4,2.8,0.5c0.6,0.8,1.2,1.5,1.8,2.2c-1.4,1.3-2.7,2-3.6,2C12.2,22.1,12.1,22,11.9,22L11.9,22z
		 M22.2,18.6c0.2,1.7,0,2.9-0.6,3.3C21.5,22,21.3,22,21.1,22c-0.9,0-2.2-0.7-3.6-2c0.6-0.6,1.2-1.4,1.8-2.2c1-0.1,1.9-0.3,2.8-0.5
		C22.1,17.8,22.2,18.2,22.2,18.6z M23.9,15.8c-0.4,0.2-0.8,0.3-1.2,0.4c-0.2-0.9-0.6-1.7-1-2.6c0.4-0.9,0.7-1.8,1-2.6
		c0.4,0.1,0.8,0.3,1.2,0.4c1.5,0.7,2.5,1.5,2.5,2.2C26.4,14.2,25.4,15.1,23.9,15.8L23.9,15.8z"/>
	<circle class="st1" cx="16.7" cy="13.6" r="2"/>
</g>
</svg>
