<svg width="24" height="24" viewBox="0 0 24 24" fill="none" xmlns="http://www.w3.org/2000/svg">
<path d="M0.473114 19.5949C2.71038 21.0092 5.30432 21.7567 7.95111 21.7499C11.8611 21.7499 15.4441 20.2479 18.0411 17.5209C20.5261 14.9109 21.8931 11.4039 21.8251 7.84489C22.7671 7.03889 23.8751 5.49989 23.8751 3.99989C23.8752 3.86772 23.8403 3.73787 23.7741 3.6235C23.7078 3.50914 23.6125 3.41431 23.4978 3.34864C23.3831 3.28296 23.253 3.24876 23.1209 3.24951C22.9887 3.25026 22.8591 3.28592 22.7451 3.35289C21.8601 3.87289 21.0531 4.00889 20.2231 3.77589C18.5281 2.12389 16.0051 1.77589 13.8791 2.92189C12.0211 3.92189 10.9881 5.75189 11.0811 7.75189C7.93042 7.36754 5.04621 5.79215 3.02011 3.34889C2.94318 3.2558 2.8449 3.18267 2.73363 3.13571C2.62237 3.08875 2.50141 3.06936 2.38104 3.07917C2.26067 3.08899 2.14445 3.12773 2.04226 3.1921C1.94008 3.25647 1.85495 3.34456 1.79411 3.44889C0.820114 5.11689 0.830114 7.04989 1.67711 8.61089C1.49365 8.6414 1.32712 8.73647 1.20757 8.87894C1.08802 9.02141 1.02331 9.20191 1.02511 9.38789C1.02767 10.147 1.19358 10.8967 1.51159 11.5861C1.8296 12.2754 2.29225 12.8882 2.86811 13.3829C2.7659 13.481 2.69361 13.6061 2.65963 13.7436C2.62564 13.8811 2.63136 14.0255 2.67611 14.1599C2.92094 14.8903 3.31964 15.5596 3.84529 16.1227C4.37094 16.6857 5.0113 17.1295 5.72311 17.4239C4.24373 18.1297 2.59555 18.4049 0.967114 18.2179C0.183114 18.1119 -0.203886 19.1659 0.473114 19.5949ZM8.15611 17.6809C8.71711 17.2499 8.41912 16.3519 7.71511 16.3369C7.11476 16.3242 6.5254 16.1734 5.99268 15.8963C5.45995 15.6192 4.99818 15.2232 4.64311 14.7389C4.989 14.7179 5.33198 14.663 5.66711 14.5749C6.42811 14.3689 6.39211 13.2709 5.61911 13.1159C4.94279 12.9805 4.31525 12.6659 3.80211 12.205C3.28896 11.7441 2.90906 11.1539 2.70211 10.4959C3.07911 10.5889 3.46311 10.6409 3.84611 10.6479C4.60511 10.6519 4.89211 9.67889 4.27311 9.27189C2.87811 8.35289 2.28311 6.72989 2.67711 5.20389C5.13146 7.68603 8.42756 9.15727 11.9141 9.32689C12.0298 9.33266 12.1453 9.3115 12.2515 9.26508C12.3577 9.21866 12.4516 9.14824 12.5259 9.05937C12.6003 8.97049 12.653 8.86558 12.6799 8.75288C12.7068 8.64018 12.7072 8.52277 12.6811 8.40989C12.2061 6.35089 13.3561 4.90789 14.5911 4.24289C15.8131 3.58289 17.7751 3.37689 19.2791 4.95489C19.7261 5.42589 21.2341 5.44389 22.0011 5.26489C21.6571 5.91289 21.1281 6.52789 20.6331 6.87389C20.5293 6.9466 20.4455 7.04444 20.3897 7.15829C20.3339 7.27213 20.3079 7.39826 20.3141 7.52489C20.4751 10.8099 19.2511 14.0759 16.9561 16.4849C14.6441 18.9119 11.4471 20.2489 7.95211 20.2489C6.56211 20.2489 5.19911 20.0229 3.91111 19.5869C5.45111 19.2889 6.91411 18.6369 8.15611 17.6809Z" style="fill: var(--on-surface-variant)"/>
</svg>
