<svg width="18" height="18" viewBox="0 0 18 18" fill="none" xmlns="http://www.w3.org/2000/svg">
<g id="work">
<mask id="mask0_66_986" style="mask-type:alpha" maskUnits="userSpaceOnUse" x="0" y="0" width="18" height="18">
<rect id="Bounding box" width="18" height="18" fill="#D9D9D9"/>
</mask>
<g mask="url(#mask0_66_986)">
<path id="work_2" d="M3 15.75C2.5875 15.75 2.23438 15.6031 1.94063 15.3094C1.64688 15.0156 1.5 14.6625 1.5 14.25V6C1.5 5.5875 1.64688 5.23438 1.94063 4.94063C2.23438 4.64688 2.5875 4.5 3 4.5H6V3C6 2.5875 6.14687 2.23438 6.44063 1.94063C6.73438 1.64688 7.0875 1.5 7.5 1.5H10.5C10.9125 1.5 11.2656 1.64688 11.5594 1.94063C11.8531 2.23438 12 2.5875 12 3V4.5H15C15.4125 4.5 15.7656 4.64688 16.0594 4.94063C16.3531 5.23438 16.5 5.5875 16.5 6V14.25C16.5 14.6625 16.3531 15.0156 16.0594 15.3094C15.7656 15.6031 15.4125 15.75 15 15.75H3ZM3 14.25H15V6H3V14.25ZM7.5 4.5H10.5V3H7.5V4.5Z" fill="#49454F"/>
</g>
</g>
</svg>
